<svg width="22" height="22" viewBox="0 0 22 22" fill="none" xmlns="http://www.w3.org/2000/svg">
<path d="M17.3384 0.618106C17.1179 0.236844 16.7074 0 16.2672 0H11.667V5.44143H20.1281L17.3384 0.618106Z" fill="white"/>
<path d="M10.3779 0H5.73427C5.29324 0 4.88276 0.237273 4.66225 0.619395L1.88281 5.44143H10.3779V0H10.3779Z" fill="white"/>
<path d="M1.4209 6.73096V20.4839C1.4209 21.32 2.10135 22 2.93739 22H19.0636C19.8996 22 20.5801 21.32 20.5801 20.4839V6.73096H1.4209ZM13.9273 12.5146L10.5925 15.8493C10.4666 15.9753 10.3015 16.0385 10.1365 16.0385C9.97142 16.0385 9.80634 15.9753 9.68082 15.8493L8.11749 14.2864C7.86604 14.0349 7.86604 13.6265 8.11749 13.3747C8.36938 13.1228 8.77775 13.1228 9.02963 13.3747L10.1365 14.482L13.0156 11.6028C13.2675 11.351 13.6759 11.351 13.9273 11.6028C14.1792 11.8547 14.1792 12.2627 13.9273 12.5146Z" fill="white"/>
</svg>
