<svg width="42" height="37" viewBox="0 0 42 37" fill="none" xmlns="http://www.w3.org/2000/svg">
<path d="M39.492 8.42836C39.4831 8.3913 39.4746 8.3524 39.4664 8.31424C39.4464 8.22457 39.426 8.13157 39.3997 8.03634C39.1422 7.11002 38.4827 6.50162 37.4915 6.28226C37.0485 6.18163 36.596 6.12859 36.1417 6.12405C33.4153 6.11404 30.6438 6.11441 27.9634 6.11479H9.6275C9.62269 6.0807 9.61824 6.04661 9.61342 6.01289C9.56674 5.66793 9.52227 5.34224 9.47448 5.00876C9.45187 4.85203 9.43075 4.69493 9.40963 4.53782C9.35294 4.11654 9.29403 3.68117 9.20955 3.25173C9.01317 2.2513 8.50777 1.81667 7.46474 1.74813C7.39063 1.74331 7.31467 1.73479 7.2339 1.72552L7.11385 1.71219L7.0931 1.70996H3.54679L3.4586 1.76628C3.10722 1.85625 2.80282 2.07569 2.60639 2.38062C2.40853 2.69779 2.35072 3.09203 2.44373 3.48997C2.60157 4.1647 3.16885 4.58785 3.92583 4.59415C4.13481 4.59415 4.34564 4.59415 4.5498 4.59415C4.85401 4.59415 5.16821 4.59192 5.47612 4.59896C6.12232 4.61415 6.54657 4.99246 6.63994 5.63644C6.78816 6.66132 6.94267 7.70249 7.09162 8.70959L7.20278 9.4599L7.51513 11.5745C7.67767 12.674 7.83996 13.7732 8.002 14.8722C8.14379 15.8541 8.28583 16.8354 8.42811 17.816C8.54816 18.6393 8.66858 19.4624 8.78937 20.2852C8.98847 21.6421 9.18793 22.9991 9.38777 24.3562L9.669 26.2655C9.8287 27.3504 10.3893 28.1726 11.3364 28.7091C11.9326 29.0471 12.614 29.2112 13.4202 29.2112C18.4117 29.2112 23.4031 29.2112 28.3943 29.2112H34.1375C34.2223 29.2112 34.3105 29.2112 34.405 29.2042C35.1394 29.1449 35.6418 28.7292 35.7493 28.0926C35.7853 27.8608 35.7888 27.6251 35.7597 27.3923C35.7026 26.8932 35.381 26.5282 34.8993 26.4163C34.629 26.3557 34.3526 26.326 34.0756 26.3278C28.3888 26.3244 22.6071 26.3244 17.0154 26.3244H13.7215C13.6473 26.3244 13.5781 26.3244 13.511 26.3222C12.9663 26.3004 12.598 25.9887 12.5006 25.4618C12.4487 25.181 12.4098 24.8875 12.3724 24.6033C12.3587 24.4996 12.3449 24.3955 12.3309 24.2917C12.3105 24.1435 12.2912 23.9983 12.272 23.8471H15.3618C20.8337 23.8471 26.4917 23.8471 32.0566 23.8438C32.3449 23.8438 32.7236 23.8334 33.0941 23.7552C34.4554 23.4695 35.3543 22.6918 35.7656 21.4431C35.8982 21.0411 36.0216 20.6313 36.1413 20.2352C36.1821 20.0996 36.2231 19.9637 36.2643 19.8276C37.0898 17.1201 37.915 14.4126 38.7398 11.7053L39.5005 9.20943V8.47282L39.492 8.42836ZM36.3758 9.77078C36.2147 10.4651 36.0124 11.168 35.8163 11.8479L35.7841 11.9591C35.1802 14.0641 34.5591 16.202 33.9604 18.2696L33.4027 20.1963C33.2464 20.7358 32.9514 20.9592 32.3497 20.9933C32.25 20.9989 32.147 20.9989 32.0381 20.9985H11.7651L10.0977 9.00379H13.5299C20.5603 9.00379 27.83 9.00379 34.9801 9.00675C35.2807 9.00792 35.5809 9.03083 35.8782 9.0753C36.1376 9.11235 36.3054 9.18238 36.3681 9.27427C36.4444 9.38394 36.4144 9.60478 36.3758 9.77078Z" fill="white"/>
<path d="M33 21.5H12L11 21L9.5 8.5L11.5 8H29H38L37 12L33 21.5Z" fill="#FBFBFB"/>
<path d="M17.6572 32.3193C17.6571 32.6835 17.5847 33.044 17.4442 33.3799C17.3036 33.7159 17.0978 34.0206 16.8387 34.2764C16.5827 34.5337 16.2784 34.7379 15.9432 34.8771C15.608 35.0163 15.2486 35.0878 14.8856 35.0875H14.8749C14.1399 35.0845 13.436 34.7904 12.9173 34.2695C12.3986 33.7487 12.1074 33.0436 12.1074 32.3086C12.1096 30.7838 13.3554 29.5444 14.8864 29.5444H14.889C15.2531 29.5439 15.6138 29.6157 15.95 29.7556C16.2862 29.8956 16.5913 30.1009 16.8476 30.3596C17.1054 30.6165 17.3097 30.922 17.4486 31.2584C17.5876 31.5948 17.6585 31.9554 17.6572 32.3193Z" fill="white"/>
<path d="M32.6694 32.3038V32.3164C32.6703 32.6787 32.5996 33.0376 32.4613 33.3725C32.323 33.7073 32.1198 34.0115 31.8635 34.2676C31.6078 34.5271 31.3031 34.7333 30.9672 34.8743C30.6313 35.0153 30.2707 35.0883 29.9064 35.089H29.8953C29.5338 35.0894 29.1757 35.0183 28.8418 34.8799C28.5078 34.7415 28.2045 34.5384 27.9493 34.2824C27.6895 34.026 27.4832 33.7206 27.3424 33.3839C27.2016 33.0471 27.129 32.6858 27.1289 32.3208C27.1256 30.7968 28.3554 29.5508 29.8708 29.5419C30.2366 29.5384 30.5995 29.6072 30.9387 29.7443C31.2778 29.8813 31.5866 30.084 31.8472 30.3407C32.1076 30.5971 32.3143 30.9027 32.4555 31.2397C32.5966 31.5767 32.6693 31.9384 32.6694 32.3038Z" fill="white"/>
</svg>
