<svg width="29" height="29" viewBox="0 0 29 29" fill="none" xmlns="http://www.w3.org/2000/svg">
<g clip-path="url(#clip0_1301_15063)">
<path d="M17.9943 11.0007C19.2022 5.31217 14.8446 0 9.09645 0C4.08064 0 0 4.08269 0 9.10094C0 14.8522 5.31394 19.2191 11.0069 18.0005C9.79973 23.6688 14.1388 29 19.9036 29C24.9194 29 29 24.9174 29 19.8991C29 14.1494 23.6866 9.77925 17.9943 11.0007ZM1.70588 9.10094C1.70588 5.02331 5.02126 1.70588 9.09645 1.70588C14.227 1.70588 17.8148 6.84576 16.0303 11.6658C14.1183 12.5698 12.5699 14.1211 11.669 16.0355C6.85333 17.8279 1.70588 14.2425 1.70588 9.10094ZM19.9036 27.2941C15.8285 27.2941 12.5131 23.9767 12.5131 19.8991C12.5131 15.8215 15.8285 12.5042 19.9036 12.5042C23.9787 12.5042 27.2941 15.8215 27.2941 19.8991C27.2941 23.9767 23.9787 27.2941 19.9036 27.2941Z" fill="white"/>
<path d="M21.1812 2.68232C22.8525 2.68232 24.6289 3.94439 24.6289 6.28333V7.08646L23.8607 6.3179C23.5278 5.98468 22.9877 5.98468 22.6545 6.31756C22.3213 6.65055 22.3212 7.19063 22.6542 7.52379L24.8785 9.7494C25.2084 10.0798 25.7502 10.0846 26.085 9.7494L28.3094 7.52379C28.6424 7.19063 28.6423 6.6506 28.3091 6.31756C27.9759 5.98451 27.4359 5.98468 27.1029 6.3179L26.3347 7.08651V6.28333C26.3347 3.18027 23.9773 0.97644 21.1811 0.97644C20.71 0.97644 20.3281 1.35833 20.3281 1.82938C20.3281 2.30043 20.7101 2.68232 21.1812 2.68232Z" fill="white"/>
<path d="M7.81846 26.3177C6.14709 26.3177 4.37075 25.0556 4.37075 22.7166V21.9135L5.13897 22.6821C5.4719 23.0152 6.01187 23.0155 6.3452 22.6824C6.67842 22.3494 6.67853 21.8093 6.34554 21.4762L4.12113 19.2505C3.79115 18.9199 3.24834 18.9161 2.91461 19.2505L0.690086 21.4762C0.357097 21.8094 0.357211 22.3494 0.690427 22.6825C1.02353 23.0155 1.56361 23.0153 1.89666 22.6821L2.66487 21.9135V22.7166C2.66487 25.8198 5.02223 28.0235 7.81846 28.0235C8.28951 28.0235 8.6714 27.6416 8.6714 27.1706C8.6714 26.6995 8.28951 26.3177 7.81846 26.3177Z" fill="white"/>
<circle cx="20" cy="20" r="8" fill="white"/>
<circle cx="9" cy="9" r="8" fill="white"/>
</g>
<path d="M8.17247 8.24789H10.0203C11.4057 8.24789 12.5327 9.3753 12.5328 10.761C12.5328 12.0763 11.5087 13.2743 9.94943 13.2743V14.0321C9.94943 14.5032 9.56754 14.8851 9.09649 14.8851C8.62543 14.8851 8.24354 14.5032 8.24354 14.0321V13.2743C7.601 13.2743 7.04766 13.1681 6.43332 12.7416C6.04631 12.473 5.95044 11.9415 6.21906 11.5546C6.48768 11.1675 7.01912 11.0715 7.40613 11.3403C7.61476 11.4851 7.85307 11.5661 8.07751 11.5684H10.0082L10.0206 11.5684C10.4656 11.5684 10.8269 11.2078 10.8269 10.761C10.8269 10.3159 10.4651 9.95371 10.0204 9.95371H8.17252C6.78718 9.95371 5.66016 8.82624 5.66016 7.44043C5.66016 6.11491 6.6954 4.92721 8.24349 4.92721V4.16935C8.24349 3.6983 8.62538 3.31641 9.09643 3.31641C9.56748 3.31641 9.94937 3.6983 9.94937 4.16935V4.92727H9.95784H9.96421C10.748 4.93313 11.5125 5.27266 12.0617 5.85891C12.3837 6.2027 12.3661 6.74244 12.0223 7.06451C11.6785 7.38647 11.1388 7.36896 10.8167 7.02517C10.5862 6.77906 10.272 6.63634 9.95426 6.63315H8.18475L8.17235 6.6331C7.72723 6.6331 7.36598 6.99378 7.36598 7.44049C7.36598 7.88567 7.7278 8.24789 8.17247 8.24789Z" fill="#232F3F"/>
<path d="M22.8144 21.8899C21.6237 21.5119 20.3793 21.3918 19.1529 21.531C19.3258 21.0008 19.4475 20.4566 19.5176 19.9042H20.5398C21.0108 19.9042 21.3927 19.5224 21.3927 19.0513C21.3927 18.5803 21.0108 18.1984 20.5398 18.1984H19.5687C19.5511 17.9287 19.5402 17.8517 19.468 17.1929C19.3484 16.1009 20.7037 15.517 21.4213 16.3262C21.7338 16.6787 22.2729 16.7112 22.6254 16.3985C22.9778 16.0861 23.0103 15.547 22.6977 15.1945C20.8875 13.1527 17.471 14.6331 17.7724 17.3788C17.8493 18.0808 17.8435 18.0178 17.858 18.1983H17.2514C16.7803 18.1983 16.3984 18.5802 16.3984 19.0513C16.3984 19.5223 16.7803 19.9042 17.2514 19.9042H17.7942C17.663 20.7344 17.3862 21.5388 16.9689 22.2876C16.6005 22.9489 17.2163 23.7293 17.9452 23.5238C19.3895 23.1172 20.7363 23.0198 22.2983 23.5157C22.7465 23.6581 23.2266 23.4105 23.3694 22.9608C23.5117 22.5119 23.2633 22.0325 22.8144 21.8899Z" fill="#232F3F"/>
<defs>
<clipPath id="clip0_1301_15063">
<rect width="29" height="29" fill="white"/>
</clipPath>
</defs>
</svg>
