<svg width="49" height="49" viewBox="0 0 49 49" fill="none" xmlns="http://www.w3.org/2000/svg">
<g clip-path="url(#clip0_533_3034)">
<path d="M19.6115 25.1065C20.9827 26.1081 22.6757 26.6923 24.5 26.6923C28.9616 26.6923 32.8461 22.8304 32.8461 18.3462C32.8461 13.7438 29.1023 10 24.5 10C19.8977 10 16.1538 13.7438 16.1538 18.3462C16.1538 21.1242 17.513 23.5923 19.6115 25.1065Z" fill="white"/>
<path d="M31.8446 26.1559C29.925 27.9682 27.3377 29.077 24.5 29.077C21.6623 29.077 19.075 27.9682 17.1554 26.1559C12.3027 28.779 9 33.9178 9 39.8078C9 40.4636 9.53654 41.0001 10.1923 41.0001H38.8077C39.4635 41.0001 40 40.4636 40 39.8078C40 33.9178 36.6973 28.779 31.8446 26.1559Z" fill="white"/>
</g>
<rect x="1" y="1" width="47" height="47" rx="23.5" stroke="white" stroke-width="2"/>
<defs>
<clipPath id="clip0_533_3034">
<rect x="9" y="10" width="31" height="31" rx="15.5" fill="white"/>
</clipPath>
</defs>
</svg>
