<svg width="223" height="45" viewBox="0 0 223 45" fill="none" xmlns="http://www.w3.org/2000/svg">
<path d="M52.1086 0.587036V4.32234H44.1029V26.4H39.4892V4.32234H31.4834V0.587036H52.1086Z" fill="white"/>
<path d="M73.8911 21.7024V26.4H59.6869L55.1172 21.802V0.880005H59.7859V21.7024H73.8911Z" fill="white"/>
<path d="M95.4788 0.988892H85.8339L76.626 26.4H81.8885L83.8898 20.8198H97.4229L99.4242 26.4H104.687L95.4788 0.988892ZM85.1316 17.3656L90.6563 1.96846L96.1811 17.3656H85.1316Z" fill="white"/>
<path d="M132.156 0.835815V26.4H123.992L112.029 3.54804V26.4H107.369V0.835815H115.878L127.496 23.0369V0.835815H132.156Z" fill="white"/>
<path d="M155.737 0.587036V4.32234H147.731V26.4H143.117V4.32234H135.111V0.587036H155.737Z" fill="white"/>
<path d="M158.942 0.644409V26.4H163.567V0.644409H158.942Z" fill="white"/>
<path d="M175.541 4.9814V21.6669H191.393V26.2483H174.825L170.988 22.3912V5.214L175.773 0.400024H191.393V4.9814H175.541Z" fill="white"/>
<path d="M213.213 0.988892H203.568L194.36 26.4H199.611L201.612 20.8198H215.145L217.147 26.4H222.409L213.213 0.988892ZM202.866 17.3656L208.391 1.96846L213.915 17.3656H202.866Z" fill="white"/>
<path d="M3.9646 44.4023V36.8196H1V35.7428H8.11503V36.8196H5.18601V44.4023H3.9646Z" fill="white"/>
<path d="M21.7147 41.5046C21.7977 41.4748 21.8748 41.445 21.9519 41.4092C22.4551 41.1963 22.8836 40.8369 23.1822 40.3771C23.4788 39.8928 23.6282 39.3319 23.6121 38.7633C23.6274 38.192 23.4781 37.6284 23.1822 37.1406C22.8848 36.6783 22.4561 36.3166 21.9519 36.1025C21.3406 35.8485 20.6831 35.7266 20.0219 35.7445H16.666V44.3951H17.8963V41.7701H20.0249C20.2117 41.7701 20.3955 41.7701 20.5704 41.7463L22.4203 44.4041H23.7603L21.7147 41.5046ZM19.9864 40.7171H17.8963V36.8214H19.9864C20.772 36.8214 21.3679 36.9884 21.7651 37.3285C21.9669 37.5057 22.1253 37.7274 22.2281 37.9762C22.3309 38.2251 22.3754 38.4944 22.358 38.7633C22.3736 39.0329 22.3284 39.3026 22.2257 39.5521C22.123 39.8016 21.9656 40.0245 21.7651 40.2041C21.3659 40.5481 20.773 40.7191 19.9864 40.7171Z" fill="white"/>
<path d="M37.4274 35.7428H36.209L32.3105 44.3934H33.5764L34.5221 42.2278H39.0995L40.0452 44.3934H41.3348L37.4274 35.7428ZM34.955 41.2613L36.8108 37.0135L38.6666 41.2613H34.955Z" fill="white"/>
<path d="M49.8857 44.3945V35.7439H53.5114C54.3523 35.7266 55.185 35.9128 55.9395 36.2868C56.6172 36.6276 57.1848 37.1552 57.5759 37.8081C57.9588 38.5011 58.1597 39.2808 58.1597 40.0737C58.1597 40.8665 57.9588 41.6463 57.5759 42.3392C57.1848 42.9922 56.6172 43.5198 55.9395 43.8605C55.185 44.2346 54.3523 44.4208 53.5114 44.4034L49.8857 44.3945ZM51.1131 43.3177H53.4373C54.0788 43.3351 54.7148 43.1948 55.2902 42.909C55.7932 42.6517 56.2128 42.2554 56.4998 41.7665C56.7815 41.243 56.9291 40.6571 56.9291 40.0617C56.9291 39.4664 56.7815 38.8805 56.4998 38.357C56.212 37.8703 55.7924 37.4761 55.2902 37.2205C54.7148 36.9347 54.0788 36.7944 53.4373 36.8118H51.1131V43.3177Z" fill="white"/>
<path d="M66.7109 44.3934V35.7428H67.9412V44.3934H66.7109Z" fill="white"/>
<path d="M83.8948 35.7428V44.4023H82.8868L77.7225 37.9472V44.4023H76.4922V35.7428H77.5001L82.6645 42.1949V35.7428H83.8948Z" fill="white"/>
<path d="M99.1067 40.1223H100.293V43.499C99.8568 43.8684 99.3532 44.1481 98.8103 44.3223C98.2356 44.5084 97.6352 44.602 97.0315 44.5997C96.4057 44.6076 95.784 44.4963 95.1994 44.2716C94.6583 44.0652 94.1649 43.7495 93.7497 43.3439C93.3411 42.9452 93.0156 42.4686 92.7921 41.9419C92.3297 40.8075 92.3297 39.5355 92.7921 38.4011C93.0156 37.8729 93.3434 37.396 93.7556 36.9991C94.1751 36.5946 94.6711 36.2791 95.2142 36.0714C95.8028 35.8459 96.4285 35.7346 97.0582 35.7433C97.6961 35.7353 98.3298 35.8487 98.9259 36.0774C99.4796 36.2893 99.974 36.6333 100.367 37.0796L99.6018 37.8463C99.2746 37.5171 98.8842 37.2583 98.4545 37.0856C97.5773 36.7595 96.6132 36.7595 95.736 37.0856C95.3283 37.2389 94.956 37.4744 94.642 37.7776C94.3333 38.0768 94.09 38.4375 93.9276 38.8366C93.5917 39.6862 93.5917 40.6329 93.9276 41.4825C94.0906 41.883 94.3338 42.2455 94.642 42.5474C94.9537 42.8522 95.3239 43.0897 95.73 43.2454C96.1648 43.4146 96.6277 43.4986 97.0938 43.493C97.5432 43.4947 97.9899 43.4222 98.416 43.2782C98.6615 43.1945 98.8948 43.0781 99.1097 42.9322L99.1067 40.1223Z" fill="white"/>
<path d="M122.798 44.5996C122.179 44.6073 121.564 44.4959 120.986 44.2714C120.448 44.065 119.957 43.7492 119.546 43.3437C119.14 42.944 118.816 42.4676 118.594 41.9418C118.135 40.8066 118.135 39.5361 118.594 38.401C118.819 37.8702 119.148 37.3903 119.561 36.9901C119.974 36.5898 120.463 36.2773 120.998 36.0713C122.175 35.6258 123.473 35.6258 124.651 36.0713C125.2 36.2894 125.691 36.6348 126.083 37.0795L125.282 37.8581C124.972 37.5245 124.595 37.2612 124.176 37.0855C123.759 36.9143 123.311 36.8281 122.86 36.8319C122.4 36.8267 121.943 36.9108 121.514 37.0795C121.112 37.2344 120.746 37.4699 120.438 37.7716C120.133 38.0719 119.893 38.4324 119.732 38.8305C119.396 39.6842 119.396 40.6346 119.732 41.4883C119.893 41.8864 120.133 42.2469 120.438 42.5473C120.746 42.849 121.112 43.0845 121.514 43.2393C121.943 43.4081 122.4 43.4921 122.86 43.4869C123.311 43.4908 123.759 43.4046 124.176 43.2334C124.598 43.0576 124.976 42.7896 125.282 42.4489L126.083 43.2274C125.689 43.6721 125.199 44.0192 124.651 44.2416C124.062 44.4823 123.433 44.604 122.798 44.5996Z" fill="white"/>
<path d="M138.365 44.5906C137.74 44.597 137.121 44.4836 136.538 44.2565C135.995 44.0465 135.499 43.729 135.08 43.3228C134.671 42.9241 134.346 42.4475 134.122 41.9208C133.664 40.795 133.664 39.5327 134.122 38.4069C134.345 37.8789 134.671 37.4012 135.08 37.0019C135.498 36.597 135.992 36.2797 136.533 36.0682C137.71 35.6268 139.007 35.6268 140.185 36.0682C140.723 36.2717 141.214 36.5831 141.628 36.9836C142.043 37.3842 142.372 37.8654 142.595 38.3979C143.049 39.5372 143.049 40.8084 142.595 41.9477C142.371 42.4792 142.043 42.9597 141.63 43.3601C141.217 43.7605 140.727 44.0725 140.191 44.2774C139.607 44.4969 138.988 44.6032 138.365 44.5906ZM138.365 43.4899C138.821 43.4959 139.274 43.4117 139.699 43.2423C140.094 43.0846 140.453 42.847 140.754 42.5443C141.055 42.2411 141.294 41.8813 141.457 41.4853C141.626 41.0639 141.711 40.6126 141.706 40.1579C141.713 39.7161 141.633 39.2772 141.469 38.8673C141.305 38.4574 141.061 38.0848 140.751 37.7715C140.451 37.466 140.092 37.2263 139.696 37.0675C139.271 36.8981 138.818 36.8139 138.362 36.8199C137.909 36.8145 137.46 36.8986 137.039 37.0675C136.641 37.2269 136.279 37.4664 135.975 37.7715C135.663 38.0836 135.418 38.4558 135.253 38.8659C135.087 39.276 135.007 39.7155 135.015 40.1579C135.011 40.6118 135.096 41.062 135.267 41.4823C135.431 41.8792 135.671 42.2392 135.975 42.5413C136.28 42.8436 136.642 43.081 137.039 43.2393C137.457 43.4081 137.903 43.4932 138.353 43.4899H138.365Z" fill="white"/>
<path d="M159.794 44.3967H158.612L158.6 38.0848L155.49 43.3467H154.924L151.814 38.1236V44.3967H150.631V35.7372H151.642L155.229 41.8194L158.772 35.7372H159.78L159.794 44.3967Z" fill="white"/>
<path d="M173.992 37.1349C173.695 36.6727 173.268 36.311 172.764 36.0968C172.152 35.843 171.493 35.7211 170.831 35.7389H167.49V44.3895H168.721V41.7674H170.846C171.509 41.785 172.168 41.661 172.779 41.4035C173.281 41.1853 173.708 40.8232 174.006 40.3625C174.304 39.8785 174.454 39.3176 174.439 38.7487C174.447 38.1786 174.292 37.6183 173.992 37.1349ZM172.583 40.1924C172.18 40.5295 171.581 40.6996 170.805 40.6996H168.729V36.8217H170.805C171.59 36.8217 172.189 36.9887 172.583 37.3288C172.776 37.514 172.93 37.7367 173.035 37.9833C173.139 38.2299 173.194 38.4954 173.194 38.7636C173.194 39.0319 173.139 39.2973 173.035 39.5439C172.93 39.7905 172.776 40.0132 172.583 40.1984V40.1924Z" fill="white"/>
<path d="M187.25 35.7372H186.034L182.136 44.3878H183.396L184.341 42.2221H188.919L189.864 44.3878H191.154L187.25 35.7372ZM184.783 41.2557L186.639 37.0079L188.495 41.2557H184.783Z" fill="white"/>
<path d="M206.252 35.7372V44.3967H205.247L200.08 37.9416V44.3967H198.85V35.7372H199.858L205.025 42.1893V35.7372H206.252Z" fill="white"/>
<path d="M222 35.7372L218.582 41.4018V44.3967H217.366V41.3839L213.948 35.7372H215.262L218.019 40.3041L220.785 35.7372H222Z" fill="white"/>
<path d="M8.64646 15.5664L11.5589 16.5421V18.928L7.07475 19.8997L4.7165 26.4H0L9.43367 0.400024H14.1495L8.64646 15.5664Z" fill="white"/>
<path d="M11.5638 16.5414C11.8797 16.6464 12.1699 16.8168 12.4783 16.9326L12.7477 17.0316L12.7895 17.0471C12.778 17.0653 12.7686 17.0794 12.7585 17.0936C12.6195 17.3115 12.5065 17.545 12.4218 17.7892C12.3544 17.9777 12.2763 18.1656 12.209 18.3548C12.186 18.43 12.1673 18.5065 12.1531 18.5838L12.3275 18.6168C12.312 18.6579 12.3006 18.6969 12.2831 18.7326C12.2293 18.8491 12.1517 18.953 12.0554 19.0377C12.05 19.0421 12.045 19.0471 12.0406 19.0525C11.9894 19.105 11.9894 19.1043 11.9228 19.0761C11.811 19.0276 11.6985 18.9811 11.5861 18.934C11.5784 18.931 11.5705 18.9288 11.5625 18.9272L11.5638 16.5414Z" fill="white"/>
<path d="M13.5341 19.2188C13.556 19.1751 13.5637 19.1257 13.5561 19.0774C13.5485 19.0291 13.5259 18.9843 13.4917 18.9495C13.4636 18.9208 13.4271 18.9018 13.3875 18.8952C13.3479 18.8887 13.3072 18.8949 13.2715 18.9131C13.2385 18.8363 13.2041 18.7569 13.1132 18.7387C13.0729 18.7298 13.0309 18.7322 12.9919 18.7458C12.9529 18.7594 12.9184 18.7835 12.8923 18.8155C12.8564 18.7854 12.8188 18.7573 12.7799 18.7313C12.7293 18.7019 12.6769 18.6758 12.623 18.6532C12.6149 18.6532 12.5933 18.6613 12.5886 18.6714C12.5725 18.7037 12.5435 18.7084 12.5078 18.7185V18.6794C12.5107 18.5635 12.5279 18.4484 12.559 18.3367C12.6087 18.0975 12.6721 17.8615 12.7489 17.6296C12.7718 17.5623 12.7947 17.4949 12.8162 17.4343L13.192 17.4572C13.159 17.4875 13.13 17.5185 13.0964 17.5441C13.0627 17.5697 13.0183 17.5953 12.9799 17.6229C12.9498 17.6409 12.928 17.6698 12.9189 17.7036C12.9099 17.7374 12.9143 17.7735 12.9314 17.804C12.9496 17.8372 12.9791 17.8629 13.0145 17.8764C13.0498 17.89 13.0889 17.8906 13.1247 17.8781C13.2551 17.8324 13.3807 17.774 13.4997 17.7037C13.5671 17.6633 13.6432 17.6276 13.7159 17.5933C13.759 17.5713 13.8066 17.5599 13.855 17.5599C13.9033 17.5599 13.9509 17.5713 13.994 17.5933C14.0519 17.6215 14.1092 17.6505 14.1644 17.6842C14.2364 17.7273 14.3058 17.7751 14.3772 17.8188C14.623 17.9778 14.8714 18.134 15.1179 18.297C15.1921 18.3513 15.2599 18.4139 15.3199 18.4835C15.3508 18.5159 15.3748 18.5543 15.3903 18.5964C15.4058 18.6384 15.4126 18.6832 15.4102 18.7279C15.4081 18.7631 15.3985 18.7975 15.3821 18.8287C15.3658 18.8599 15.343 18.8873 15.3152 18.9091C15.2983 18.9187 15.2782 18.9214 15.2593 18.9165C15.1417 18.8917 15.0329 18.8359 14.9442 18.7549C14.8319 18.6567 14.7088 18.5718 14.5772 18.5017L14.5624 18.4943L14.5213 18.5441L14.5085 18.5387C14.5294 18.5549 14.5496 18.5717 14.5718 18.5858C14.6297 18.6229 14.6923 18.6532 14.7475 18.6949C14.7943 18.7334 14.838 18.7755 14.8782 18.8209C14.894 18.8422 14.9082 18.8647 14.9206 18.8882C14.9497 18.9291 14.9658 18.9779 14.9667 19.0281C14.9677 19.0783 14.9535 19.1277 14.926 19.1697C14.906 19.2034 14.875 19.2292 14.8382 19.2426C14.8014 19.2561 14.761 19.2565 14.724 19.2438C14.6443 19.227 14.5712 19.1877 14.5132 19.1306C14.4459 19.0633 14.3731 18.9959 14.3018 18.934C14.2715 18.9071 14.2344 18.8848 14.2008 18.8579L14.1839 18.8862C14.2863 18.9805 14.3859 19.0727 14.4849 19.1623C14.5225 19.1957 14.5641 19.2242 14.6088 19.2471C14.6153 19.2495 14.6212 19.2531 14.6261 19.2579C14.631 19.2626 14.6349 19.2683 14.6375 19.2747C14.6401 19.281 14.6414 19.2878 14.6412 19.2947C14.641 19.3015 14.6394 19.3083 14.6364 19.3145C14.6307 19.341 14.6188 19.366 14.6019 19.3873C14.585 19.4086 14.5634 19.4257 14.5388 19.4373C14.5142 19.449 14.4873 19.4548 14.4601 19.4544C14.4329 19.454 14.4061 19.4474 14.3819 19.435C14.3076 19.4084 14.2391 19.368 14.1799 19.3158C14.1294 19.27 14.0735 19.2316 14.0203 19.1885C13.9765 19.1576 13.9236 19.1422 13.8701 19.1448L13.8641 19.1791C13.8681 19.1825 13.8694 19.1852 13.8714 19.1852C13.9387 19.1885 14.0024 19.2163 14.0506 19.2633C14.1071 19.3111 14.165 19.3569 14.2223 19.404C14.2459 19.4236 14.2331 19.4943 14.2021 19.5104C14.1711 19.5322 14.1338 19.5433 14.0959 19.5421C14.058 19.5409 14.0216 19.5274 13.992 19.5037C13.9708 19.4872 13.9483 19.4726 13.9247 19.4599C13.9145 19.4545 13.8997 19.4478 13.8917 19.4518C13.8634 19.4667 13.8479 19.4518 13.8331 19.4316C13.7846 19.3697 13.7374 19.3071 13.6876 19.2464C13.6768 19.2328 13.6611 19.2239 13.6438 19.2215C13.6073 19.2187 13.5707 19.2178 13.5341 19.2188Z" fill="white"/>
<path d="M19.6524 15.5664L16.74 16.5421V18.9475L21.2242 19.8997L23.5824 26.4H28.2989L18.8652 0.400024H14.1494L19.6524 15.5664Z" fill="white"/>
<path d="M16.7305 16.5414C16.4146 16.6464 16.1244 16.8168 15.816 16.9326L15.5466 17.0316L15.5049 17.0471L15.5352 17.0936C15.6744 17.3114 15.7874 17.5449 15.8719 17.7892C15.9426 17.9777 16.0173 18.1656 16.0847 18.3548C16.1073 18.4301 16.126 18.5066 16.1406 18.5838L15.9655 18.6168C15.981 18.6579 15.9931 18.6969 16.0099 18.7326C16.0642 18.849 16.1419 18.9528 16.2382 19.0377C16.2437 19.0421 16.2486 19.0471 16.253 19.0525C16.3042 19.105 16.3035 19.1043 16.3702 19.0761C16.4827 19.0276 16.5951 18.9811 16.7069 18.934C16.7145 18.931 16.7224 18.9288 16.7305 18.9272V16.5414Z" fill="white"/>
<path d="M15.3711 17.1838C15.3742 17.2025 15.3785 17.2209 15.3839 17.239C15.4135 17.3299 15.4459 17.4208 15.4748 17.5084C15.5543 17.7616 15.6095 18.0195 15.6681 18.2788C15.6697 18.2874 15.6681 18.2963 15.6634 18.3037C15.5906 18.3697 15.5175 18.4352 15.4438 18.5003C15.427 18.5158 15.4135 18.5151 15.3967 18.5003C15.3368 18.433 15.2762 18.3724 15.2142 18.3104C15.1865 18.2817 15.156 18.2558 15.1233 18.233C14.9118 18.0895 14.6991 17.9481 14.4869 17.8054C14.398 17.7461 14.3098 17.6862 14.2209 17.6276C14.1839 17.6033 14.1448 17.5818 14.1058 17.5602C14.0521 17.5272 13.9911 17.5079 13.9282 17.5039C13.8652 17.4999 13.8023 17.5114 13.7448 17.5373C13.6474 17.5822 13.552 17.6294 13.4587 17.6788C13.348 17.7431 13.2314 17.7965 13.1105 17.8384C13.0935 17.845 13.0752 17.8473 13.0571 17.8452C13.039 17.8431 13.0217 17.8365 13.0068 17.8262C12.9918 17.8158 12.9796 17.8019 12.9713 17.7857C12.963 17.7695 12.9587 17.7515 12.959 17.7333C12.9601 17.7126 12.969 17.6931 12.9839 17.6788C13.018 17.6483 13.055 17.6213 13.0943 17.598C13.1541 17.5628 13.2039 17.5129 13.2391 17.4532C13.2654 17.4114 13.291 17.369 13.3179 17.3279C13.3522 17.2751 13.4055 17.2375 13.4667 17.2229C13.6111 17.187 13.7512 17.1353 13.8842 17.0687C13.9748 17.0273 14.077 17.019 14.1731 17.0451C14.3469 17.0821 14.5199 17.1225 14.6937 17.1616C14.7825 17.1818 14.8728 17.1993 14.963 17.2235C15.0995 17.2586 15.2439 17.2445 15.3711 17.1838Z" fill="white"/>
<path d="M13.2513 18.971C13.3186 18.9327 13.3981 18.9077 13.4607 18.9778C13.4794 18.996 13.494 19.018 13.5037 19.0422C13.5135 19.0664 13.5181 19.0923 13.5172 19.1184C13.5164 19.1445 13.5102 19.1701 13.499 19.1937C13.4877 19.2172 13.4717 19.2382 13.452 19.2552H13.5159C13.5726 19.2546 13.6281 19.2708 13.6755 19.3017C13.686 19.309 13.6953 19.3179 13.7031 19.3279C13.7429 19.3784 13.7813 19.4296 13.8223 19.4828C13.7893 19.5044 13.7521 19.519 13.7132 19.5255C13.6742 19.532 13.6343 19.5303 13.5961 19.5205C13.584 19.5205 13.5739 19.5017 13.5651 19.4896C13.5433 19.4561 13.5151 19.4273 13.4822 19.4048C13.4493 19.3823 13.4122 19.3665 13.3732 19.3582L13.318 19.3461C13.2789 19.3387 13.2438 19.3175 13.219 19.2863C13.1943 19.2552 13.1816 19.2162 13.1833 19.1764C13.1833 19.1582 13.1833 19.1394 13.1786 19.1131C13.1536 19.1313 13.1341 19.1448 13.1153 19.1596C13.1069 19.1687 13.096 19.175 13.0839 19.1777C13.0719 19.1803 13.0593 19.1792 13.0479 19.1744C13.0035 19.1571 12.9601 19.1373 12.918 19.1151C12.9107 19.1088 12.9047 19.1011 12.9004 19.0924C12.8961 19.0837 12.8936 19.0743 12.893 19.0646C12.8856 19.0141 12.8823 18.963 12.8776 18.9098C12.8693 18.912 12.8613 18.9147 12.8533 18.9178C12.8195 18.9316 12.7828 18.9366 12.7465 18.9323C12.7102 18.9281 12.6756 18.9148 12.6459 18.8936C12.64 18.8902 12.635 18.8854 12.6312 18.8797C12.6275 18.8739 12.6251 18.8674 12.6244 18.8606C12.619 18.8088 12.617 18.7562 12.6143 18.7044L12.627 18.6949C12.6735 18.7219 12.7227 18.7461 12.7671 18.7764C12.8116 18.8067 12.8533 18.8438 12.9018 18.8808C12.906 18.8771 12.9096 18.8728 12.9126 18.868C12.9255 18.8402 12.9462 18.8167 12.9721 18.8002C12.998 18.7837 13.028 18.775 13.0587 18.7751C13.0816 18.7715 13.105 18.775 13.1259 18.7849C13.1468 18.7949 13.1642 18.811 13.1759 18.831C13.2055 18.8734 13.2257 18.9212 13.2513 18.971Z" fill="white"/>
</svg>
