<svg width="23" height="21" viewBox="0 0 23 21" fill="none" xmlns="http://www.w3.org/2000/svg">
<path d="M22.7265 7.02038C21.699 8.27697 20.6781 9.53928 19.6394 10.7866C17.0031 13.9537 14.3621 17.1165 11.7164 20.275C11.6314 20.3767 11.5398 20.4741 11.4012 20.6295C10.8513 19.9729 10.3312 19.3543 9.81334 18.7328C6.68974 14.9785 3.56687 11.224 0.444758 7.46932C-0.15582 6.74544 -0.151335 6.73828 0.477557 6.02442C1.99241 4.30601 3.51472 2.5876 5.02287 0.858452C5.30826 0.529806 5.61897 0.370139 6.07499 0.371571C9.65163 0.38064 13.227 0.38064 16.8012 0.371571C16.9875 0.366375 17.1724 0.403706 17.3408 0.480501C17.5092 0.557295 17.6562 0.671365 17.7699 0.813346C19.4305 2.71266 21.0969 4.60745 22.769 6.4977C22.9582 6.71751 22.8599 6.85713 22.7265 7.02038Z" fill="#4F67CF"/>
</svg>
