<svg width="15" height="14" viewBox="0 0 15 14" fill="none" xmlns="http://www.w3.org/2000/svg">
<path d="M6.63679 0.793733C6.92251 -0.0856148 8.16655 -0.085615 8.45227 0.793733L9.47313 3.9356C9.6009 4.32886 9.96737 4.59511 10.3809 4.59511H13.6844C14.609 4.59511 14.9934 5.77826 14.2454 6.32173L11.5728 8.26351C11.2383 8.50656 11.0983 8.93737 11.2261 9.33062L12.2469 12.4725C12.5326 13.3518 11.5262 14.0831 10.7782 13.5396L8.10555 11.5978C7.77102 11.3548 7.31804 11.3548 6.98352 11.5978L4.31089 13.5396C3.56287 14.0831 2.55642 13.3518 2.84214 12.4725L3.86299 9.33062C3.99077 8.93737 3.85079 8.50656 3.51626 8.26351L0.843634 6.32173C0.0956161 5.77826 0.480047 4.59511 1.40465 4.59511H4.7082C5.12169 4.59511 5.48816 4.32886 5.61594 3.9356L6.63679 0.793733Z" fill="#CC4400"/>
</svg>
